<?xml version="1.0" encoding="iso-8859-1"?>
<!-- Generator: Adobe Illustrator 19.0.0, SVG Export Plug-In . SVG Version: 6.00 Build 0)  -->
<svg version="1.1" id="Capa_1" xmlns="http://www.w3.org/2000/svg" xmlns:xlink="http://www.w3.org/1999/xlink" x="0px" y="0px"
	 viewBox="0 0 511.999 511.999" style="enable-background:new 0 0 511.999 511.999;" xml:space="preserve">
<g>
	<g>
		<path d="M496.979,482.001H263.945c9.805-9.919,212.721-215.19,222.605-225.189c33.999-34.256,33.942-89.5-0.234-123.675
			L378.86,25.681c-34.447-34.447-89.702-33.945-123.648-0.269c-0.09,0.089-225.813,223.049-226.817,224.041
			c-37.236,36.941-38.387,97.967-0.27,136.083l122.068,122.068c2.871,2.869,6.796,4.396,10.609,4.396H496.98
			c8.284,0,14.999-6.716,14.999-14.999C511.979,488.716,505.264,482.001,496.979,482.001z M276.317,46.732
			c22.528-22.35,58.857-22.313,81.331,0.161l107.456,107.456c22.427,22.428,22.567,58.747,0.133,81.351l-48.053,48.611
			L227.662,94.79L276.317,46.732z M206.32,115.871l189.774,189.774L289.152,413.83L98.095,222.773L206.32,115.871z M167.013,482.001
			L49.338,364.324c-26.115-26.115-25.511-68.081,0.162-93.551l27.252-26.919l191.31,191.31l-46.299,46.836H167.013z"/>
	</g>
</g>
<g>
</g>
<g>
</g>
<g>
</g>
<g>
</g>
<g>
</g>
<g>
</g>
<g>
</g>
<g>
</g>
<g>
</g>
<g>
</g>
<g>
</g>
<g>
</g>
<g>
</g>
<g>
</g>
<g>
</g>
</svg>
